<?xml version="1.0" encoding="UTF-8"?>
<svg width="95px" height="95px" viewBox="0 0 95 95" version="1.1" xmlns="http://www.w3.org/2000/svg" xmlns:xlink="http://www.w3.org/1999/xlink">
    <!-- Generator: Sketch 50.2 (55047) - http://www.bohemiancoding.com/sketch -->
    <title>Gear Icon</title>
    <desc>Created with Sketch.</desc>
    <defs>
        <polygon id="path-1" points="0 0 94.715 0 94.715 94.7146 0 94.7146"></polygon>
    </defs>
    <g id="Gear-Icon" stroke="none" stroke-width="1" fill="none" fill-rule="evenodd">
        <g id="Group-Copy">
            <path d="M56.85,38.58 C56.84,38.57 56.829,38.57 56.82,38.559 C54.609,36.369 51.566,35 48.22,35 C41.487,35 36,40.486 36,47.22 C36,50.577 37.359,53.608 39.56,55.819 C39.57,55.83 39.57,55.839 39.58,55.85 C39.59,55.86 39.6,55.87 39.61,55.87 C41.821,58.071 44.864,59.43 48.22,59.43 C54.954,59.43 60.43,53.954 60.43,47.22 C60.43,43.863 59.071,40.821 56.87,38.61 C56.86,38.6 56.86,38.59 56.85,38.58 M48.22,36.126 C51.07,36.126 53.676,37.221 55.643,38.996 L39.996,54.643 C38.221,52.676 37.126,50.069 37.126,47.22 C37.126,41.105 42.095,36.126 48.22,36.126 M48.22,58.314 C45.36,58.314 42.764,57.219 40.797,55.434 L56.434,39.797 C58.209,41.764 59.304,44.36 59.304,47.22 C59.304,53.335 54.335,58.314 48.22,58.314" id="Fill-1" fill="#3E4646"></path>
            <mask id="mask-2" fill="white">
                <use xlink:href="#path-1"></use>
            </mask>
            <g id="Clip-4"></g>
            <path d="M88.104,71.442 C92.303,64.384 94.716,56.15 94.716,47.358 C94.716,29.601 84.89,14.106 70.388,5.993 C70.327,5.932 70.246,5.892 70.155,5.861 C67.234,4.249 64.142,2.951 60.896,1.977 C60.856,1.967 60.815,1.957 60.774,1.947 C56.516,0.69 52.013,0 47.358,0 C42.704,0 38.211,0.679 33.972,1.937 C33.901,1.947 33.84,1.957 33.79,1.987 C14.269,7.839 0,25.961 0,47.358 C0,55.075 1.867,62.366 5.152,68.806 C5.162,68.836 5.162,68.877 5.172,68.907 C5.203,68.978 5.243,69.039 5.294,69.089 C6.684,71.756 8.316,74.272 10.162,76.614 C10.202,76.735 10.273,76.827 10.374,76.888 C14.705,82.303 20.191,86.745 26.468,89.848 C26.519,89.888 26.58,89.919 26.651,89.939 C29.378,91.268 32.259,92.342 35.25,93.144 C35.281,93.154 35.301,93.164 35.331,93.174 L35.372,93.174 C39.205,94.178 43.221,94.715 47.358,94.715 C64.578,94.715 79.677,85.467 87.972,71.675 C88.033,71.614 88.084,71.533 88.104,71.442 Z M61.221,3.245 C64.081,4.148 66.829,5.324 69.425,6.734 L69.425,14.41 C69.425,16.671 67.589,18.517 65.318,18.517 C63.056,18.517 61.221,16.671 61.221,14.41 L61.221,3.245 Z M60.095,2.921 L60.095,14.41 C60.095,17.29 62.438,19.632 65.318,19.632 C68.208,19.632 70.55,17.29 70.55,14.41 L70.55,7.382 C84.16,15.313 93.377,29.986 93.58,46.79 L75.884,46.79 C75.682,45.573 74.789,44.599 73.542,44.285 L69.496,43.271 C68.766,43.088 68.208,42.551 68.015,41.821 C67.823,41.09 68.025,40.34 68.573,39.823 L71.564,36.923 C72.629,35.899 72.842,34.347 72.112,33.069 C71.372,31.781 69.922,31.193 68.492,31.599 L64.486,32.745 C63.756,32.958 63.016,32.765 62.479,32.228 C61.951,31.7 61.758,30.95 61.961,30.22 L63.107,26.214 C63.513,24.794 62.924,23.344 61.647,22.604 C60.369,21.863 58.817,22.077 57.793,23.141 L54.893,26.143 C54.366,26.68 53.615,26.894 52.895,26.691 C52.165,26.498 51.618,25.95 51.435,25.22 L50.421,21.174 C50.066,19.734 48.829,18.771 47.358,18.771 C45.878,18.771 44.641,19.734 44.286,21.174 L43.271,25.22 C43.089,25.95 42.541,26.498 41.821,26.691 C41.102,26.894 40.341,26.68 39.824,26.143 L36.923,23.141 C36.285,22.482 35.443,22.158 34.601,22.168 L34.601,15.84 C35.96,15.607 37.035,14.532 37.268,13.173 L39.286,13.173 C39.55,14.714 40.898,15.901 42.521,15.901 C44.336,15.901 45.807,14.42 45.807,12.605 C45.807,10.8 44.336,9.319 42.521,9.319 C40.898,9.319 39.55,10.506 39.286,12.047 L37.268,12.047 C37.035,10.689 35.96,9.613 34.601,9.38 L34.601,2.921 C38.657,1.754 42.927,1.115 47.358,1.115 C51.77,1.115 56.049,1.754 60.095,2.921 Z M67.792,55.693 L70.784,58.594 C71.635,59.415 71.504,60.449 71.139,61.088 C70.763,61.727 69.942,62.356 68.806,62.031 L64.791,60.885 C63.675,60.561 62.509,60.865 61.687,61.687 C60.866,62.508 60.562,63.674 60.886,64.8 L62.032,68.806 C62.347,69.942 61.718,70.773 61.089,71.138 C60.45,71.503 59.416,71.635 58.594,70.783 L55.694,67.792 C54.883,66.95 53.727,66.625 52.601,66.929 C51.476,67.234 50.634,68.096 50.35,69.221 L49.336,73.268 C49.052,74.413 48.088,74.819 47.358,74.819 C46.618,74.819 45.655,74.413 45.371,73.268 L44.356,69.221 C44.073,68.096 43.231,67.234 42.105,66.929 C41.832,66.859 41.547,66.818 41.274,66.818 C40.432,66.818 39.621,67.163 39.012,67.792 L36.112,70.783 C35.301,71.635 34.267,71.503 33.627,71.138 C32.989,70.773 32.36,69.942 32.685,68.806 L33.831,64.8 C34.145,63.674 33.851,62.508 33.019,61.687 C32.198,60.865 31.041,60.561 29.916,60.885 L25.9,62.031 C24.774,62.356 23.943,61.727 23.578,61.088 C23.203,60.449 23.081,59.415 23.923,58.594 L26.924,55.693 C27.756,54.882 28.081,53.726 27.776,52.601 C27.472,51.475 26.62,50.633 25.484,50.349 L21.438,49.335 C20.303,49.051 19.897,48.088 19.897,47.358 C19.897,46.617 20.303,45.664 21.438,45.37 L25.484,44.356 C26.62,44.082 27.472,43.24 27.776,42.105 C28.081,40.979 27.756,39.823 26.924,39.012 L23.923,36.111 C23.081,35.3 23.203,34.266 23.578,33.627 C23.943,32.988 24.774,32.359 25.9,32.684 L29.916,33.83 C31.041,34.154 32.198,33.85 33.019,33.019 C33.851,32.197 34.145,31.041 33.831,29.916 L32.685,25.91 C32.36,24.774 32.989,23.942 33.627,23.577 C34.267,23.202 35.301,23.081 36.112,23.922 L39.012,26.924 C39.824,27.755 40.979,28.08 42.105,27.775 C43.231,27.471 44.073,26.62 44.356,25.484 L45.371,21.438 C45.655,20.302 46.618,19.896 47.358,19.896 C48.088,19.896 49.052,20.302 49.336,21.438 L50.35,25.484 C50.634,26.62 51.476,27.471 52.601,27.775 C53.727,28.08 54.883,27.755 55.694,26.924 L58.594,23.922 C59.416,23.081 60.45,23.202 61.089,23.577 C61.718,23.942 62.347,24.774 62.032,25.91 L60.886,29.916 C60.562,31.041 60.866,32.197 61.687,33.028 C62.509,33.85 63.675,34.154 64.791,33.83 L68.806,32.684 C69.932,32.359 70.763,32.988 71.139,33.627 C71.504,34.266 71.635,35.3 70.784,36.111 L67.792,39.012 C66.95,39.823 66.626,40.979 66.93,42.105 C67.234,43.24 68.086,44.082 69.222,44.356 L73.268,45.37 C74.414,45.664 74.81,46.617 74.81,47.358 C74.81,48.088 74.414,49.051 73.268,49.335 L69.222,50.349 C68.086,50.633 67.234,51.475 66.93,52.601 C66.626,53.726 66.95,54.882 67.792,55.693 Z M34.033,10.445 C35.23,10.445 36.204,11.419 36.204,12.605 C36.204,13.801 35.23,14.775 34.033,14.775 C32.836,14.775 31.863,13.801 31.863,12.605 C31.863,11.419 32.836,10.445 34.033,10.445 Z M40.351,12.605 C40.351,11.419 41.325,10.445 42.521,10.445 C43.718,10.445 44.691,11.419 44.691,12.605 C44.691,13.801 43.718,14.775 42.521,14.775 C41.325,14.775 40.351,13.801 40.351,12.605 Z M33.476,3.255 L33.476,9.38 C32.117,9.613 31.041,10.689 30.798,12.047 L28.78,12.047 C28.517,10.506 27.178,9.319 25.556,9.319 C23.74,9.319 22.26,10.8 22.26,12.605 C22.26,14.42 23.74,15.901 25.556,15.901 C27.178,15.901 28.517,14.714 28.78,13.173 L30.798,13.173 C31.041,14.532 32.117,15.607 33.476,15.84 L33.476,22.411 C33.333,22.462 33.202,22.523 33.06,22.604 C31.782,23.344 31.194,24.794 31.6,26.214 L32.745,30.22 C32.958,30.95 32.766,31.7 32.228,32.228 C31.701,32.765 30.94,32.958 30.22,32.745 L26.215,31.599 C24.795,31.193 23.345,31.781 22.604,33.059 C21.864,34.347 22.077,35.899 23.142,36.923 L26.144,39.823 C26.681,40.34 26.884,41.09 26.691,41.821 C26.499,42.551 25.941,43.088 25.221,43.271 L21.175,44.285 C19.917,44.599 19.035,45.573 18.822,46.79 L1.136,46.79 C1.38,26.376 14.908,9.107 33.476,3.255 Z M27.715,12.605 C27.715,13.801 26.752,14.775 25.556,14.775 C24.359,14.775 23.385,13.801 23.385,12.605 C23.385,11.419 24.359,10.445 25.556,10.445 C26.752,10.445 27.715,11.419 27.715,12.605 Z M34.956,91.886 C32.33,91.156 29.794,90.213 27.371,89.046 C27.381,88.955 27.381,88.864 27.381,88.773 C27.381,81.411 21.388,75.418 14.025,75.418 C12.981,75.418 11.957,75.559 10.942,75.803 C9.279,73.673 7.789,71.391 6.511,68.988 C8.904,68.075 11.429,67.588 14.025,67.588 C25.708,67.588 35.209,77.09 35.209,88.773 C35.209,89.817 35.108,90.862 34.956,91.886 Z M11.723,76.786 C12.484,76.645 13.255,76.543 14.025,76.543 C20.667,76.543 26.083,81.867 26.245,88.469 C20.647,85.579 15.699,81.593 11.723,76.786 Z M47.358,93.59 C43.454,93.59 39.671,93.103 36.051,92.191 C36.224,91.065 36.325,89.919 36.325,88.773 C36.325,76.472 26.326,66.473 14.025,66.473 C11.257,66.473 8.56,66.99 5.994,67.984 C2.962,61.93 1.217,55.115 1.136,47.916 L18.822,47.916 C19.035,49.143 19.917,50.116 21.175,50.43 L25.221,51.434 C25.941,51.617 26.499,52.165 26.691,52.895 C26.884,53.614 26.681,54.365 26.144,54.892 L23.142,57.793 C22.077,58.817 21.864,60.368 22.604,61.646 C23.345,62.924 24.795,63.512 26.215,63.107 L30.22,61.961 C30.94,61.748 31.701,61.95 32.228,62.478 C32.766,63.015 32.958,63.766 32.745,64.485 L31.6,68.501 C31.194,69.921 31.782,71.371 33.06,72.111 C34.348,72.841 35.889,72.629 36.923,71.564 L39.824,68.572 C40.341,68.025 41.091,67.822 41.821,68.015 C42.541,68.207 43.089,68.765 43.271,69.495 L44.286,73.541 C44.641,74.971 45.878,75.935 47.358,75.935 C48.829,75.935 50.066,74.971 50.421,73.541 L51.435,69.495 C51.618,68.765 52.165,68.207 52.895,68.015 C53.625,67.822 54.366,68.025 54.893,68.572 L57.793,71.564 C58.817,72.629 60.369,72.852 61.647,72.111 C62.924,71.371 63.513,69.921 63.107,68.501 L61.961,64.485 C61.758,63.766 61.951,63.015 62.479,62.478 C63.016,61.95 63.766,61.748 64.486,61.961 L68.492,63.107 C69.922,63.512 71.372,62.924 72.112,61.646 C72.842,60.368 72.629,58.817 71.564,57.793 L68.573,54.892 C68.025,54.365 67.823,53.614 68.015,52.895 C68.208,52.165 68.766,51.617 69.496,51.434 L73.542,50.43 C74.789,50.116 75.682,49.143 75.884,47.916 L93.58,47.916 C93.479,56.221 91.177,64.009 87.232,70.722 L74.536,70.722 C74.333,69.1 72.964,67.842 71.291,67.842 C69.476,67.842 67.995,69.323 67.995,71.138 C67.995,72.76 69.182,74.099 70.733,74.363 L70.733,76.381 C69.182,76.654 67.995,77.993 67.995,79.616 C67.995,81.431 69.476,82.911 71.291,82.911 C73.106,82.911 74.576,81.431 74.576,79.616 C74.576,77.993 73.4,76.654 71.849,76.381 L71.849,74.363 C73.167,74.14 74.211,73.136 74.495,71.838 L86.553,71.838 C78.369,84.889 63.857,93.59 47.358,93.59 Z M71.291,77.445 C72.487,77.445 73.461,78.419 73.461,79.616 C73.461,80.812 72.487,81.786 71.291,81.786 C70.094,81.786 69.121,80.812 69.121,79.616 C69.121,78.419 70.094,77.445 71.291,77.445 Z M71.291,73.298 C70.094,73.298 69.121,72.335 69.121,71.138 C69.121,69.942 70.094,68.968 71.291,68.968 C72.487,68.968 73.461,69.942 73.461,71.138 C73.461,72.335 72.487,73.298 71.291,73.298 Z" id="Fill-3" fill="#3E4646" mask="url(#mask-2)"></path>
        </g>
    </g>
</svg>